<svg id="Layer_1" data-name="Layer 1" xmlns="http://www.w3.org/2000/svg" viewBox="0 0 512 512"><title>foreground</title><path d="M353.75,301.19776l-37.5-31.25166A6.247,6.247,0,0,0,306,274.74635v18.751H295.5375a24.87782,24.87782,0,0,1-21.2-11.75062l-40.475-64.75344a49.6961,49.6961,0,0,0-42.4-23.50125H156v25.00133h35.4625a24.8778,24.8778,0,0,1,21.2,11.75062l40.475,64.75343a49.72735,49.72735,0,0,0,42.4,23.50125H306v18.751a6.25819,6.25819,0,0,0,3.6,5.6628,6.34056,6.34056,0,0,0,2.65.58753,6.17972,6.17972,0,0,0,4-1.45008l37.5-31.25166a6.24553,6.24553,0,0,0,0-9.6005Z"/><path d="M353.75,201.19244l-37.5-31.25166A6.25536,6.25536,0,0,0,306,174.741v18.751H295.5375a49.69612,49.69612,0,0,0-42.4,23.50125l-2.2625,3.62519,14.7375,23.58876,8.725-13.96325a24.8778,24.8778,0,0,1,21.2-11.75062H306v18.751a6.2446,6.2446,0,0,0,3.6,5.6628,6.34041,6.34041,0,0,0,2.65.58754,6.24837,6.24837,0,0,0,4-1.45008l37.5-31.25166a6.24554,6.24554,0,0,0,0-9.60051Z"/><path d="M221.3875,267.78348l-8.7125,13.96324a24.89882,24.89882,0,0,1-21.2125,11.75061H156v25.00133h35.4625a49.72737,49.72737,0,0,0,42.4-23.50125l2.2625-3.62519Z"/></svg>